Patient4_TMGait_0pt4_02_right_39_EMG.mot
version=1
nRows=39
nColumns=33
inDegrees=no
endheader
time	1LAddLong	2LGlutMax	3LGlutMed	4LIliopsoas	5LSemiMemb	6LBicFemLong	7LRecFem	8LVastMed	9LVastLat	10LGasMed	11LTibAnt	12lTibPost	13LPeroneusLong	14LSol	15LExtDigLong	16LFlexDigLong	17RAddLong	18RGlutMax	19RGlutMed	20RIliopsoas	21RSemiMemb	22RBicFemLong	23RRecFem	24RVastMed	25RVastLat	26RGasMed	27RTibAnt	28RTibPost	29RPeroneusLong	30RSol	31RExtDigLong	32RFlexDigLong
52.83	0.002747	-0.042877	0.12817	-0.007019	0.011597	0.012207	-0.020599	-0.002441	0.000763	0.089569	-0.015259	0.009003	0.38742	0.17532	-0.04715	0.003204	0.000763	-0.015259	0.18845	0.27832	0.076447	0.077515	0.005188	-0.047302	-0.014954	-0.019226	-0.031433	-0.002136	-0.10239	-0.012207	-0.003815	-0.00824
52.831	0.00824	-0.059052	0.044708	-0.013733	0.015411	-0.004578	0.045013	-0.010834	0.062408	0.013733	0.031738	0.013275	0.27054	0.19257	0.08194	0.014038	0.06424	-0.084991	0.011292	0.30563	0.29602	0.080872	0.006561	-0.063629	-0.02243	-0.020294	-0.18753	-0.001373	0.22385	0.006104	-0.003052	0
52.832	0.00946	-0.071564	-0.13153	-0.004883	0.013428	-0.008087	0.07431	-0.000153	0.003357	-0.045929	0.085144	0.016174	-0.03891	0.24811	0.21011	0.017853	0.054321	-0.019073	-0.000763	0.14832	0.12054	0.075378	0.012512	-0.079346	-0.016479	-0.019684	-0.11734	-0.007629	-0.016022	0.042725	0.001373	-0.005035
52.833	0	-0.059509	-0.14908	0.026245	0.014343	-0.0177	-0.009613	0.026398	-0.03067	-0.069275	0.044556	0.010071	-0.22995	0.40039	0.021362	0.031586	0.038452	-0.035553	-0.39627	0.010223	0.032501	0.10498	0.059967	-0.058289	-0.011902	-0.019684	-0.021362	0.000458	-0.15976	-0.003662	-0.003967	-0.001526
52.834	0.002441	-0.036163	0.010071	0.027771	0.017242	0.009308	-0.017853	0.022278	-0.014648	-0.054932	0.03418	0.011902	0.3978	0.17441	-0.14374	0.004425	0.013733	0.02182	-0.98099	-0.06134	0.042419	0.14206	0.037689	-0.098267	-0.000305	-0.017242	0.005798	-0.001526	-0.097809	-0.033569	-0.00351	0.002594
52.835	0.00473	-0.080719	0.12451	0.027618	0.02121	0.06897	0.027008	0.017395	-0.021057	0.014954	0.082092	0.010834	-0.47974	-0.049438	-0.2449	-0.021973	-0.012207	0.033264	-0.31723	-0.23529	0.13519	0.11978	0.017548	-0.058746	0.0177	-0.020294	0.027466	-0.002747	-0.10284	-0.044556	-0.002136	-0.001221
52.836	0.007477	-0.10468	0.15579	0.019836	0.018768	0.03952	0.090332	0.000153	-0.011139	0.034637	0.13153	0.018768	-0.96634	-0.067902	-0.18677	-0.02243	-0.019226	0.03891	-0.16693	-0.27832	0.10346	0.10727	0.04364	-0.050659	0.003204	-0.015411	0.080566	-0.001221	-0.18005	-0.012054	-0.002441	0.003052
52.837	0.005493	-0.095367	0.034637	-0.007477	0.016174	0.022278	0.074005	-0.004883	-0.001068	0.018921	0.000153	0.014801	0.11002	-0.047455	-0.097656	0.000763	-0.014191	0.014648	0.56992	-0.29999	0.041351	0.080261	0.002441	-0.0737	0.010071	-0.015259	0.13092	0.001831	-0.1973	-0.006256	-0.002136	-0.006866
52.838	0.010529	-0.05722	-0.005646	0.008392	0.015411	0.006866	0.053253	0.000305	-0.007935	0.014343	-0.027161	0.016174	0.28595	0.062866	0.01709	0.009918	-0.017395	-0.00061	1.2535	-0.27588	-0.005798	0.14023	0.013123	-0.07431	0.00061	-0.018005	0.11948	-0.000305	-0.16174	-0.012207	-0.000458	-0.001373
52.839	0.00946	-0.11002	0.09903	-0.025024	0.016327	0.015259	0.039215	0.000916	-0.014038	-0.000153	-0.024261	0.011597	0.80978	0.027771	-0.011292	0.003815	-0.007477	-0.006561	0.86594	0.028076	-0.1506	0.15427	0.048676	-0.067139	-0.016937	-0.002441	0.12161	-0.000916	0.071411	-0.039368	-0.006104	-0.001221
52.84	0.012817	-0.13748	0.012817	-0.010376	0.009613	-0.009613	0.035553	0.005646	0.009613	-0.035858	0.042419	0.011292	0.77423	0.000305	-0.089417	0.010071	-0.010071	-0.06134	-0.70236	0.33875	-0.12436	0.1442	0.046234	-0.049896	-0.005188	-0.005493	0.1915	-0.00061	-0.053406	-0.076141	-0.002136	-0.006104
52.841	0.012665	-0.11276	-0.02121	0.008545	0.007477	-0.003815	-0.090485	0	0.023193	-0.072479	-0.005646	0.007324	-0.28427	0.032806	0.38422	0.014191	-0.014343	-0.013733	-1.0483	0.24994	-0.055237	0.13031	0.038452	-0.037079	-0.025177	-0.005798	-0.011597	-0.004578	-0.060883	-0.054321	-0.004425	-0.002289
52.842	0.004578	-0.065613	-0.05127	-0.000763	0.006866	-0.016479	-0.1709	-0.001984	0.041199	-0.03006	-0.036926	0.015717	-1.245	0.074921	-0.075226	-0.003204	-0.009918	0.023651	-0.11658	-0.068665	-0.075989	0.057678	0.019073	-0.075226	-0.030518	-0.008698	-0.32577	-0.002747	-0.18387	0.029602	0.002747	-0.009155
52.843	0.009613	-0.10254	-0.059204	-0.012054	0.003662	-0.024109	-0.1358	0.005646	0.036469	0.023956	-0.029602	0.014648	-0.24262	-0.042572	-0.001221	-0.006561	-0.008698	-0.032196	0.33066	-0.10773	-0.10361	0.056458	0.028076	-0.10941	-0.035095	-0.010376	-0.13321	-0.001221	-0.24872	-0.052338	-0.003967	-0.012207
52.844	-0.001373	-0.12772	-0.002289	-0.019379	0.005188	-0.00061	-0.033112	-0.005798	0.058594	0.016174	-0.001526	0.01358	-0.032654	0.014343	-0.16998	0.003967	-0.018311	-0.034332	-0.26871	-0.010529	0.080872	0.076904	0.003815	-0.063019	-0.036316	-0.000305	0.066986	-0.003967	-0.23407	-0.11353	-0.000458	-0.00351
52.845	-0.000458	-0.065613	-0.001221	-0.01297	0.007629	0.003357	-0.042419	-0.005035	0.014954	-0.028381	0.048676	0.003204	-0.075989	0.062408	0.076599	0.006409	-0.024109	-0.001068	-0.005951	0.02243	0.18158	0.066833	-0.01236	-0.032654	-0.034637	-0.009613	0.079803	-0.002289	0.15182	-0.007782	0.000305	-0.003357
52.846	-0.006561	-0.065155	-0.067291	-0.010986	0.015106	0.030823	-0.037842	0.001831	0.010376	-0.02182	0.01236	0.013428	-0.054169	0.10117	0.18829	0.000305	-0.010223	0.007172	0.16312	0.11841	0.1239	0.055542	-0.033722	-0.060883	-0.028076	-0.009155	0.10391	-0.004578	0.92865	0.021362	-0.002441	-0.003357
52.847	-0.003967	-0.042572	-0.034027	0.008087	0.013123	-0.00351	-0.019684	-0.000305	-0.042725	-0.029449	-0.00061	0.015411	0.30579	-0.00824	-0.040894	0.000458	-0.00351	-0.03067	0.044403	0.13992	0.039825	0.061798	-0.019073	-0.095062	-0.021057	-0.004272	0.18845	-0.002136	0.66208	-0.001678	-0.002289	-0.001221
52.848	0.001373	-0.094604	0.041962	0.024872	0.010071	-0.005798	-0.009308	0.031891	-0.060272	-0.021667	-0.002747	0.008087	0.30106	0.062408	-0.21393	0.006714	0.03006	-0.066528	0.004272	0.14145	-0.002289	0.045776	-0.022125	-0.065765	-0.018463	0.002747	-0.23407	0.009613	0.36743	-0.041656	-0.00473	-0.008698
52.849	0.001068	-0.052643	-0.008087	0.032654	0.013733	0.00885	-0.031281	-0.025635	-0.045471	-0.005798	-0.001221	0.018463	-0.27664	0.022736	-0.26093	0.00473	0.085602	-0.053711	-0.047607	0.09552	-0.018921	0.008392	-0.016937	-0.16419	-0.015717	0.001831	0.25055	-0.005646	0.14786	-0.004578	0.000916	-0.00351
52.85	0.003815	-0.02121	0.052795	0.012512	0.010529	-0.010223	-0.093689	0.006104	-0.036469	0.013123	0.039215	0.01236	-0.25848	-0.003967	-0.33646	0.007477	0.1741	0.006409	-0.15732	0.021667	-0.083618	-0.097656	0.006866	-0.1799	-0.016327	-0.006409	0.37903	-0.001678	0.12375	-0.021973	-0.003052	0.002441
52.851	-0.004578	-0.058746	0.057678	0.031281	0.01358	-0.019226	-0.085907	-0.005646	-0.007629	0.010376	0.033875	0.007782	-0.074768	0.012817	-0.24628	0.008545	0.20126	-0.011597	-0.070648	-0.085907	-0.28305	-0.13092	0.022125	-0.26993	-0.018005	-0.011292	0.17838	-0.00473	0.040283	-0.055084	-0.002136	0.002594
52.852	0.006104	-0.094757	0.039063	0.004883	0.007782	-0.003052	-0.06958	-0.00061	0.014343	0.011292	-0.015259	0.009308	0.29678	0.031738	-0.019531	0.005798	0.14755	-0.010223	0.23071	-0.12543	-0.64987	-0.032349	-0.011292	-0.25436	0.005341	-0.011444	0.17609	-0.000153	-0.030823	-0.083008	-0.001221	0.010376
52.853	0.009003	-0.045624	0.007935	0.013428	0.017242	0.007019	-0.078735	-0.007935	0.063477	0.015411	-0.018921	0.00885	0.28336	-0.16815	0.25925	0.008392	0.00473	0.048828	0.14481	-0.046234	-0.74677	0.15564	-0.082245	-0.020447	0.056763	0.001831	-0.19714	-0.003815	0.2652	-0.099335	-0.002441	0.022736
52.854	0.00412	-0.08667	0.005341	0.000458	0.011444	0.000153	-0.06485	-0.005035	0.080566	0.019989	-0.013275	0.010529	0.06012	-0.14252	0.37903	0.000458	-0.13473	0.034485	-0.1442	0.00946	0.086517	0.21637	-0.15381	0.17456	0.058899	-0.000305	-0.36163	-0.005798	0.34195	-0.13534	-0.002136	0.003967
52.855	0.00885	-0.13107	-0.040131	0.004578	0.019989	-0.00885	-0.066986	-0.00824	0.070343	0.007935	-0.00824	0.014343	0.034485	-0.16419	0.26321	0.010223	-0.17151	-0.053558	-0.1236	0.046997	0.4805	0.44907	-0.088806	0.19577	0.047913	-0.005341	-0.10696	-0.006409	-0.080261	-0.040741	0.007782	0.00061
52.856	0.010529	-0.12604	-0.063019	0.027313	0.020294	0.010071	0.004272	-0.00412	0.097198	0.037842	0.013275	0.010986	0.010986	-0.21912	0.13931	0.015564	-0.14343	0.003204	-0.095062	0.017853	0.5835	0.46982	-0.08606	0.20615	0.016937	-0.014801	0.040588	-0.009003	-0.2504	0.059967	-0.009308	-0.008392
52.857	0.014191	-0.11795	-0.058746	0.019989	0.013123	0.024109	0.056152	-0.00061	0.072632	0.029144	0.002136	0.019073	0.002441	-0.06012	-0.007324	0.015259	-0.10452	-0.007782	-0.093842	-0.006714	0.30319	0.29114	-0.044098	0.099182	0.001831	-0.007935	-0.23865	-0.00946	0.56534	0.060425	-0.002136	-0.009003
52.858	0.000153	-0.13199	-0.059204	0.013428	0.013428	-0.005951	0.049591	0.003357	0.01709	0.038147	-0.013428	0.018311	-0.13245	0.013275	0.007629	0.009155	-0.085144	-0.018463	-0.11139	0.003357	0.13672	0.19669	-0.00824	0.031281	-0.009613	-0.00885	-0.34683	-0.004578	0.439	0.054932	-0.001984	-0.016785
52.859	0.00885	-0.11047	-0.14465	0.021515	0.018005	-0.004578	0.052643	0.014191	-0.029297	0.050659	-0.003204	0.005341	0.031433	-0.068512	0.058136	0.006714	-0.06012	-0.037079	-0.14633	0.014496	0.071716	0.13825	0.003357	0.007477	-0.011902	-0.02594	-0.025024	-0.005188	-0.076904	0.023651	-0.002594	-0.010223
52.86	0.001068	-0.086823	-0.26535	0.010986	0.010986	-0.001373	0.032501	0.010071	-0.088501	0.014648	-0.012665	0.013123	-0.001068	-0.030212	0.089722	0	-0.044556	-0.039368	-0.17197	0.000305	0.03067	0.14252	0.001678	-0.008392	-0.034637	-0.0383	0.029602	-0.009308	-0.327	0.044861	-0.002441	0.004578
52.861	-0.00061	-0.085754	-0.22369	0	0.009155	0.012207	-0.023193	0.027618	-0.06073	0.004883	0.000305	0.018158	-0.16098	-0.009918	0.011444	0.003967	-0.018005	-0.028381	-0.14252	0.01709	0.035095	0.13718	0.030365	-0.019531	-0.027313	-0.045319	0.072327	-0.007172	-0.20889	-0.001221	0.000153	0.023041
52.862	0.006714	-0.063934	0.063782	0.007324	0.01297	-0.006409	-0.085602	0.018311	-0.039673	0.001678	0.007935	0.017548	-0.085297	-0.014648	-0.052948	0.00351	-0.012665	0.037384	-0.14297	0.056152	0.070496	0.034485	0.031891	-0.034637	-0.030212	-0.05722	0.0737	-0.008698	-0.009766	0.077667	-0.000916	0.038605
52.863	0.007324	-0.054932	0.13062	0.016327	0.018921	-0.021057	-0.084229	-0.002899	-0.014648	-0.000153	0.053864	0.007935	-0.057526	0.007172	0.088501	0.00351	-0.02594	0.074158	-0.097351	0.039825	0.088348	-0.007629	0.052185	-0.063629	-0.032806	-0.048065	-0.008545	-0.012512	0.041809	0.031281	-0.000458	-0.2385
52.864	0.013428	-0.092621	0.15457	0.009918	0.023041	-0.020905	-0.098267	-0.019226	0.12985	0.024109	0.060577	0.009918	-0.069427	0.012817	0.1683	0.006256	-0.010071	-0.016632	-0.087738	-0.063477	0.059052	0.077515	0.064392	-0.10605	-0.045776	-0.024719	-0.040741	-0.015106	-0.010071	-0.041656	-0.003357	-0.4361
52.865	0.007629	-0.074921	0.062866	0.01236	0.020752	-0.015106	-0.033417	-0.016937	0.10559	0.037537	0.075836	0.015717	-0.041962	-0.023346	0.21316	0.005951	0.006104	-0.018768	-0.090027	-0.15854	0.02182	0.090942	0.052185	-0.12299	-0.018616	-0.013885	-0.003662	-0.012665	-0.034943	0.019379	-0.003662	-0.39124
52.866	0.012207	-0.056152	-0.028992	0.007477	0.0177	-0.007782	0.00351	-0.002289	0.007172	0.006714	0.12238	-0.000458	-0.008698	-0.092316	0.099487	0.017395	0.015106	-0.006409	-0.19608	-0.17838	0.010071	0.077515	0.059967	-0.068207	-0.0177	-0.005798	0.081329	-0.010986	-0.067749	0.097198	-0.001984	-0.29877
52.867	-0.000763	-0.068359	-0.03067	-0.007019	0.0177	0.027313	0.033112	-0.002136	0.016327	-0.028076	0.071259	0.010071	0.076294	0.077515	-0.003052	0.021362	0.018005	0.011292	-0.19684	-0.15793	0.017242	0.059357	0.058441	-0.024109	0.003052	0.003204	0.10468	-0.007019	-0.013275	0.05249	0.002136	-0.23163
52.868	0.008087	-0.076141	-0.077972	-0.00885	0.013733	0.036926	-0.024719	0.000305	0.079041	-0.050049	0.046997	0.005951	0.079041	0.289	-0.035553	0.015106	0.021515	0.02243	-0.36865	-0.066833	-0.033875	0.077362	0.07019	-0.054474	0.012054	0.017242	0.035095	-0.019073	0.056	0.036011	0.004883	-0.17471
